<svg fill="none" height="342" viewBox="0 0 492 342" width="492" xmlns="http://www.w3.org/2000/svg"><g clip-path="url(#surveymonkey-logo-symbol-full-color-clipPath)"><path d="M432.603 195.219c-4.556 0-9.4.57-13.961 1.711-17.095-67.804-72.364-119.087-141.308-131.62-3.133-.57-5.984-.853-9.117-1.423.57-16.807 1.423-36.465 26.212-53.847L290.443.064s-48.433 15.102-53.842 56.41c-2.281-11.11-25.072-25.354-36.182-27.917l-5.414 8.83s14.814 7.407 18.517 27.917c-68.943 12.251-123.93 63.817-141.307 131.62-31.056-7.977-62.395 11.111-70.084 42.167-7.695 31.056 11.11 62.394 42.166 70.083 11.68 2.851 23.932 1.993 35.042-2.28 4.844 12.251 11.11 23.931 18.805 35.042l48.146-32.479-.283-.57c-12.821-16.237-20.51-40.456-21.651-64.388-1.423-26.494 5.127-52.706 21.939-68.09 34.759-29.628 72.647-15.954 96.295 12.251h6.267c23.644-28.205 61.536-41.879 96.296-12.251 16.807 15.384 23.361 41.596 21.938 68.09-1.423 23.932-9.117 47.863-21.651 64.388l-.282.57 48.145 32.479c7.695-10.828 13.961-22.509 18.805-35.042 29.628 11.68 63.247-2.851 75.21-32.479 11.681-29.628-2.851-63.247-32.478-75.21a63.245 63.245 0 0 0-22.221-3.986h-.016Zm-375.485 74.64c-9.4 0-17.094-7.695-17.094-17.095 0-9.4 7.694-17.094 17.094-17.094 3.421 0 6.837 1.14 9.688 2.851.282 8.829.853 17.947 1.71 26.782-3.133 3.133-7.124 4.844-11.398 4.556Zm376.343 0c-4.274 0-8.26-1.711-11.398-4.274 1.14-8.83 1.71-17.947 1.71-26.782 7.695-5.414 18.518-3.133 23.644 4.556 1.993 2.851 2.851 6.267 2.851 9.688.283 9.117-7.124 16.807-16.807 16.807 0 .282.283.282 0 0v.005Z" fill="#008323"></path></g><defs><clipPath id="surveymonkey-logo-symbol-full-color-clipPath"><path d="M0 0h490.93v341.871H0z" fill="#fff" transform="translate(.41 .064)"></path></clipPath></defs></svg>
