<svg xmlns="http://www.w3.org/2000/svg" fill="none" viewBox="0 0 142 36" height="36" width="142">
<path stroke-width="2.95231" stroke="#1B1C1C" d="M4.5 15.3524V11.5144C4.5 9.06863 6.48269 7.08594 8.92847 7.08594H12.7665"></path>
<path stroke-width="2.95231" stroke="#1B1C1C" d="M4.5 20.962V24.8C4.5 27.2458 6.48269 29.2285 8.92847 29.2285H12.7665"></path>
<path stroke-width="2.95231" stroke="#1B1C1C" d="M26.6426 15.3524V11.5144C26.6426 9.06863 24.6599 7.08594 22.2141 7.08594H18.3761"></path>
<path stroke-width="2.95231" stroke="#1B1C1C" d="M26.6426 20.962V24.8C26.6426 27.2458 24.6599 29.2285 22.2141 29.2285H18.3761"></path>
<path fill="#1B1C1C" d="M40.9249 31V5.5806H49.4949C53.562 5.5806 56.5034 8.30411 56.5034 12.0807C56.5034 14.5863 55.1961 16.6199 53.1262 17.6367V17.7819C55.7045 18.7261 57.3023 21.0138 57.3023 23.9915C57.3023 28.0586 54.2156 31 49.9669 31H40.9249ZM44.0842 16.402H49.6401C51.8552 16.402 53.3804 14.6953 53.3804 12.3349C53.3804 9.97452 51.8916 8.41304 49.6401 8.41304H44.0842V16.402ZM44.0842 28.1676H50.0759C52.4726 28.1676 54.1067 26.3519 54.1067 23.701C54.1067 21.0501 52.4726 19.2344 50.0759 19.2344H44.0842V28.1676ZM65.6038 16.9104H71.8134C74.2101 16.9104 75.8079 15.2037 75.8079 12.6617C75.8079 10.1198 74.2101 8.41304 71.8134 8.41304H65.6038V16.9104ZM62.4446 31V5.5806H71.6319C75.8805 5.5806 78.8583 8.48567 78.8583 12.6617C78.8583 16.1115 76.8247 18.6897 73.7017 19.4886L79.5845 31H76.1347L70.3609 19.7428H65.6038V31H62.4446ZM80.7687 31V28.1676H86.5425V8.41304H80.8413V5.5806H95.3667V8.41304H89.7018V28.1676H95.4393V31H80.7687ZM112.275 24.5362H115.289C114.744 28.5307 111.367 31.3631 107.191 31.3631C101.417 31.3631 97.4587 26.0251 97.4587 18.2903C97.4587 10.5192 101.417 5.21746 107.118 5.21746C111.185 5.21746 114.453 7.90466 115.071 11.6813H112.02C111.512 9.53876 109.587 8.12254 107.227 8.12254C103.233 8.12254 100.654 12.1533 100.654 18.3266C100.654 24.4999 103.233 28.4581 107.263 28.4581C109.769 28.4581 111.766 26.8966 112.275 24.5362ZM122.537 5.5806V18.4719L133.976 5.5806H137.861L128.456 16.2567L138.333 31H134.666L126.35 18.6534L122.537 22.9384V31H119.378V5.5806H122.537Z"></path>
</svg>
