<svg width="521" height="99" viewBox="0 0 521 99" fill="none" xmlns="http://www.w3.org/2000/svg">
<path d="M83.1627 95.9537C81.3506 95.9537 79.8803 94.4834 79.8803 92.6713V47.4758C79.8803 40.3163 78.602 38.462 66.877 38.462C62.2226 38.462 55.3815 39.5531 55.3815 42.8729V92.6666C55.3815 94.4834 53.9112 95.9537 52.0944 95.9537H38.2529C36.4361 95.9537 34.9658 94.4834 34.9658 92.6666V33.3815C34.9658 31.649 35.8368 30.0289 37.293 29.0924C45.7683 23.6185 55.9808 20.4157 66.8817 20.4157C86.7729 20.4157 100.301 26.5404 100.301 42.3626V92.6666C100.301 94.4834 98.8303 95.9537 97.0135 95.9537H83.1674H83.1627Z" fill="black"/>
<path d="M147.021 50.3694C168.369 54.1997 172.26 57.1637 172.26 73.4963C172.26 89.8288 164.346 97.9951 142.657 97.9951C132.702 97.9951 123.337 96.3562 114.576 93.2096C112.666 92.657 111.977 91.4255 112.113 89.3746L113.073 78.0102C113.345 75.6877 114.857 74.7278 117.049 75.6877C124.985 78.8343 133.611 80.6137 142.643 80.6137C149.072 80.6137 152.767 79.93 152.767 73.7725C152.767 67.203 145.106 66.5194 136.617 65.0116C117.451 61.7245 112.802 58.0019 112.802 41.852C112.802 25.7021 123.52 20.4155 141.641 20.4155C149.807 20.4155 158.793 21.6283 166.322 23.815C168.238 24.3629 169.057 25.5944 168.926 27.6453L167.966 38.7334C167.694 41.1964 166.187 42.0159 163.991 41.1964C157.285 39.005 150.06 37.7688 142.662 37.7688C133.475 37.7688 132.07 39.5576 132.07 43.2567C132.07 47.9767 137.165 48.7259 147.021 50.3694Z" fill="black"/>
<path d="M216.28 79.2463C211.083 81.1614 204.672 81.4096 204.672 75.6689L204.644 40.7281H217.423C218.832 40.7281 219.975 39.5856 219.975 38.1762V26.0345C219.975 24.625 218.832 23.4825 217.423 23.4825H204.672V8.06773C204.672 5.87632 203.282 4.7853 201.09 5.19268L187.263 7.51988C185.207 7.93194 184.252 9.16343 184.252 11.0786V82.6833C184.252 94.9326 195.481 97.995 206.709 97.995C210.263 97.995 213.672 97.5876 217.095 96.904C219.01 96.4919 219.979 95.443 219.979 93.4015V81.9153C219.979 79.3634 218.607 78.5627 216.276 79.2416L216.28 79.2463Z" fill="black"/>
<path d="M292.23 89.2388C283.469 94.7173 273.575 97.9997 261.836 97.9997C248.056 97.9997 229.682 93.9166 229.682 79.6256V68.9074C229.682 52.5749 250.355 49.5125 266.43 49.5125C269.239 49.5125 271.862 49.7513 274.596 50.0229V44.919C274.596 40.0679 272.555 36.7527 261.836 36.7527C253.923 36.7527 246.108 38.1903 238.99 40.789C236.799 41.6132 235.291 40.6533 235.155 38.3261L234.196 28.062C234.055 26.0111 234.879 24.9154 236.659 24.2271C244.731 21.7641 253.155 20.4202 261.832 20.4202C278.675 20.4202 293.986 24.7609 293.986 41.8567V85.7503C293.986 87.2815 293.457 88.4194 292.226 89.2388H292.23ZM266.43 64.8196C259.284 64.8196 249.077 64.8196 249.077 71.9651V74.7746C249.077 80.3889 256.732 80.6464 261.836 80.6464C268.219 80.6464 274.596 78.8577 274.596 73.7538V65.33C271.862 65.0584 269.235 64.8196 266.43 64.8196Z" fill="black"/>
<path d="M409.086 97.9949C388.923 97.9949 377.952 88.8079 377.952 69.3896V27.3033C377.952 9.4396 389.949 0.505402 412.148 0.505402C419.809 0.505402 427.231 1.77435 434.212 4.10155C436.123 4.6494 436.811 5.8809 436.675 7.93184L435.851 17.2453C435.58 20.1157 433.8 21.3472 430.925 20.2562C425.039 18.0647 418.723 16.8426 412.148 16.8426C401.173 16.8426 397.347 21.9465 397.347 28.5816V36.2375C401.725 35.2776 406.534 34.1959 411.128 34.1959C428.738 34.1959 442.261 39.2249 442.261 59.2051V69.1601C442.261 86.2044 433.838 97.9996 412.401 97.9996H409.081L409.086 97.9949ZM411.128 51.9332C406.277 51.9332 401.594 52.851 397.347 54.3587V71.2017C397.347 76.5631 400.92 80.6463 409.086 80.6463C414.447 80.6463 422.867 78.8576 422.867 70.6913V61.2467C422.867 54.1012 415.974 51.9332 411.128 51.9332Z" fill="black"/>
<path d="M517.548 23.7355V74.7746C517.548 90.8543 501.407 97.9998 485.585 97.9998C469.763 97.9998 453.749 90.8543 453.749 74.7746V23.7355C453.749 7.14538 469.773 0.510284 485.585 0.510284C500.391 0.510284 517.548 7.14538 517.548 23.7355ZM498.092 71.5437V26.1703C498.092 18.5145 491.71 16.8428 485.585 16.8428C479.461 16.8428 473.078 18.5473 473.078 26.2031V71.5343C473.078 79.1762 479.461 80.6418 485.585 80.6418C491.71 80.6418 498.092 79.1996 498.092 71.5437Z" fill="black"/>
<path d="M21.4365 92.6665C21.4365 94.7221 20.205 95.9537 18.1493 95.9537H3.28712C1.23619 95.9537 0 94.7221 0 92.6665V3.28242C0 1.23149 1.23619 0 3.28712 0H18.1493C20.205 0 21.4365 1.23149 21.4365 3.28242V92.6665Z" fill="black"/>
<path d="M366.977 61.9726V74.7324C366.977 91.065 350.663 97.9997 333.057 97.9997C323.612 97.9997 314.58 95.5368 306.779 91.2944C305.135 90.3345 304.587 88.9672 304.723 87.1879L305.819 75.2803C306.09 72.8173 308.141 72.4052 310.885 74.4608C317.455 78.0149 324.633 80.6464 333.057 80.6464C340.202 80.6464 347.582 78.8156 347.582 70.9068V66.3133C347.582 60.699 343.775 56.1476 330.505 56.1476H320.297C317.745 56.1476 316.214 54.6164 316.214 52.0645V42.8774C316.214 40.1991 317.745 38.7943 320.297 38.7943H329.994C341.223 38.7943 345.817 34.7112 345.817 29.6072V24.5033C345.817 18.6174 339.692 16.8475 332.546 16.8475C324.633 16.8475 317.319 18.7532 310.749 22.0357C308.015 23.4076 306.095 22.3072 305.823 19.3011L304.999 9.58491C304.863 7.66977 305.552 6.43827 307.326 5.74995C314.996 2.46752 323.617 0.514923 332.546 0.514923C350.668 0.514923 364.701 6.12923 364.701 21.9514V29.3544C364.701 37.0103 359.471 43.3925 352.358 45.1719V45.8555C360.571 46.6796 366.977 53.5535 366.977 61.9773V61.9726Z" fill="black"/>
</svg>
