<svg aria-hidden="true" viewBox="0 0 140 20" xmlns="http://www.w3.org/2000/svg"><clipPath id="a"><path d="M0 0h140v19.4706H0z"></path></clipPath><g clip-path="url(#a)"><path d="M53.4484.2656H39.8301v2.5535h13.6183z" fill="#ff4773"></path><path d="M53.4484 11.3306H39.8301v2.5534h13.6183z" fill="#85052e"></path><path d="M53.4484 5.7979H39.8301v2.5534h13.6183z" fill="#db001c"></path><path d="M53.4484 8.3516H39.8301v2.979h13.6183z" fill="#b50024"></path><path d="M53.4484 2.8188H39.8301v2.979h13.6183z" fill="#ff0a00"></path><path d="M50.8943 5.7978h-2.979v-2.979h-2.5535v2.979h-2.979v2.5535h2.979v2.979h2.5535v-2.979h2.979z" fill="#fff"></path><g fill="currentColor"><path d="M55.2049 16.6779l6.9955-8.3256h-6.5168V5.7988h10.4535v1.9418l-7.3413 8.8043h7.6073v2.5535H55.2049zM66.9881 12.4485c0-4.2293 2.6865-7.0222 6.8892-7.0222 4.6814 0 7.102 3.8036 5.7986 8.1659h-9.4161c.3458 2.0481 1.5694 3.2184 3.5909 3.2184 1.3832 0 2.2875-.5319 2.8461-1.3831h3.4047c-.9044 2.3408-2.9791 4.0431-6.3041 4.0431-4.1494 0-6.8093-2.7929-6.8093-7.0221zm9.8151-1.1172c.266-2.0216-.8245-3.3515-2.9791-3.3515-2.0481 0-3.2718 1.197-3.5643 3.3515zM87.4419 8.1128c-1.5161 0-2.4472 1.7822-2.4472 4.4686v6.5168h-3.0322V5.7987h3.0322v2.2609c.7182-1.6492 1.995-2.6333 3.6442-2.6333 3.5642 0 4.043 3.6706 3.3514 5.9049h-3.1919c.5852-1.649.2395-3.2184-1.3565-3.2184zM93.826.479h3.0322v18.6194H93.826zM108.029 16.7842c-.984 1.7023-2.607 2.6864-4.788 2.6864-2.82 0-4.5751-1.8087-4.5751-4.1228 0-2.6865 2.3411-4.3889 6.0911-4.3889 1.037 0 2.101.133 3.032.3458-.053-1.8885-.798-3.2451-2.846-3.2451-1.596 0-2.287.798-2.447 1.6225h-3.112c.0267-2.4205 2.128-4.2558 5.586-4.2558 3.883 0 5.852 2.4205 5.852 6.1177v7.5542h-2.793zm-4.176.2659c2.021 0 3.644-1.3299 4.096-3.4313-.878-.2925-1.968-.4521-2.953-.4521-2.181 0-3.245.8777-3.245 2.1013 0 1.0639.798 1.7821 2.102 1.7821zM113.082 5.7986h3.032v2.4471c.878-1.7555 2.5-2.8194 4.522-2.8194 4.282 0 4.282 4.2292 4.282 6.2241v7.4478h-3.032v-7.3679c0-1.5162 0-3.6707-2.341-3.6707-2.021 0-3.431 1.8088-3.431 4.5218v6.5168h-3.032zM126.435 12.4486c0-4.2027 2.474-7.0222 6.012-7.0222 1.941 0 3.511.8512 4.522 2.3408V.479h3.032v18.6194h-3.032V17.13c-1.011 1.4896-2.581 2.3408-4.522 2.3408-3.511 0-6.012-2.7929-6.012-7.0222zm10.667 0c0-2.6333-1.49-4.3623-3.724-4.3623-2.261 0-3.751 1.729-3.751 4.3623s1.49 4.3622 3.751 4.3622c2.234 0 3.724-1.7289 3.724-4.3622zM.0127 14.337h2.926c-.1862 1.6491 1.0373 2.6865 3.112 2.6865 1.6226 0 2.7131-.6384 2.7131-1.596 0-2.6599-8.5648-.7448-8.5648-5.7188 0-2.66 2.4737-4.2824 5.6922-4.2824 3.5642 0 6.1443 1.995 5.5858 5.0006H8.5245c.3725-1.5161-.8246-2.5535-2.66-2.5535-1.5427 0-2.5535.6916-2.5535 1.6491 0 2.6865 8.5916.6384 8.5916 5.6923 0 2.6865-2.4206 4.2558-5.8784 4.2558-3.7505 0-6.2243-1.9151-6.0115-5.1336zM12.0625 5.7988h3.2185l2.7929 10.1875 2.7929-10.1875h3.2185l2.7132 10.0545 2.8727-10.0545h3.1652L28.687 19.0984h-3.5376l-2.7132-9.3363-2.66 9.3363h-3.5643zM33.8459 1.9417C33.8459.8512 34.6971 0 35.7876 0c1.0906 0 1.9418.8512 1.9418 1.9417 0 1.0906-.8512 1.9418-1.9418 1.9418-1.0905 0-1.9417-.8512-1.9417-1.9418zm.399 3.8569h3.0323v13.2996h-3.0323z"></path></g></g></svg>